<?xml version="1.0" encoding="utf-8"?>
<!-- Generator: Adobe Illustrator 19.0.0, SVG Export Plug-In . SVG Version: 6.00 Build 0)  -->
<svg version="1.1" id="레이어_1" xmlns="http://www.w3.org/2000/svg" xmlns:xlink="http://www.w3.org/1999/xlink" x="0px"
	 y="0px" viewBox="0 0 1200 560" style="enable-background:new 0 0 1200 560;" xml:space="preserve">
<style type="text/css">
	.st0{fill:none;stroke:#FF0000;stroke-width:3;stroke-miterlimit:10;}
</style>
<path id="XMLID_3_" class="st0" d="M455,166.5c-10.9-8.7-42.5-29.4-96.6,19c-25.5,22.8-27.7,58.1-25,65.7c2.7,7.6,7,38.4,36.9,46.7
	c23.4,6.5,51.9-10.9,51.9-10.9"/>
<path id="XMLID_5_" class="st0" d="M406.7,251.7c10.9-2.2,23.3-1.1,21.7,2.7c-1.6,3.8-10.3,77.6-32,97.2c-21.7,19.5-46.1,3.8-48.3,0
	"/>
<path id="XMLID_6_" class="st0" d="M479.5,221.3c4.3-3.3,29.3-25,31.5-21.7s-23.3,94.4-23.3,97.2c0,2.7,19-78.2,64-99.9"/>
<path id="XMLID_7_" class="st0" d="M629.3,204.5c1.1-5.7-43.4-0.5-60.8,35.3c-17.4,35.8-9.2,53.7-2.7,53.7S613.9,285.6,629.3,204.5z
	"/>
<path id="XMLID_4_" class="st0" d="M636.9,192.6c-9,18.6-33.1,103.8-23.9,104.3c9.2,0.5,33.1-13.5,34.7-16.8"/>
<path id="XMLID_8_" class="st0" d="M666.2,218.6c7.1-6.5,25-21.9,32.6-16.1c7.6,5.8-23.3,82.9-23.3,91c0,8.1,17.6-55.4,24.5-60.8
	s46.6-41.4,49.8-30.2c3.3,11.2-14.7,71.5-14.7,86.1c0,14.7,28.2-2.6,29.9-8.6"/>
<path id="XMLID_9_" class="st0" d="M861.1,211.5c-4.5-18-37-9.8-59.3,19.6c-22.3,29.3-19,56.4-11.4,58.6c7.6,2.2,30.9,6,48.3-16.3
	S863.3,220.2,861.1,211.5z"/>
<path id="XMLID_11_" class="st0" d="M868.6,196.9c-3.8,6.5-11.4,40.7-13,45.1c-1.6,4.3-13.6,32-14.1,46.7
	c-0.5,14.7-3.8,47.8-13,57.5s-28.2,21.9-48.3,15c-20.1-6.9-16.3-19.4-15.2-26.4c1.1-7.1,15.1-35,48.8-44.6s56.5-18.7,70,1.3
	c13.6,20,21.7,23.3,35.3,24.9c13.6,1.6,20.6,7.6,28.8,16.3s30.4,13.6,38.5,9.8c8.1-3.8,17.8-7.2,38.4-6.7"/>
<path id="XMLID_10_" class="st0" d="M1065.7,320c-2.1,13.7-9.3,22.4-22.6,22.4c-13.3,0-25-7.9-24.1-22.9c0.8-13,10.9-22.6,24-21.8
	C1056.3,298.5,1067.4,309,1065.7,320z"/>
<path id="XMLID_13_" class="st0" d="M1031.8,299.8c0,0-3.5,11.1-2.1,14.7s10.9,6.3,14.9,5.6c4-0.8,17.1,2.7,13.4,17"/>
</svg>
